<svg xmlns="http://www.w3.org/2000/svg" viewBox="0 0 330.97 171.74"><g id="Layer_2" data-name="Layer 2"><g id="Layer_1-2" data-name="Layer 1"><path d="M191.48,97S182.8,92.05,183,82.24,185.3,69,190.12,65.89s-7-2.55-7.15-2.27S172.3,82.35,172.3,82.35L184,97.9Z" fill="#27aae1"/><path d="M142.78,97s-8.69-4.94-8.52-14.75,2.33-13.29,7.15-16.35-7-2.55-7.15-2.27-10.67,18.73-10.67,18.73l11.7,15.55Z" fill="#27aae1"/><path d="M246,97s-8.68-4.94-8.51-14.75,2.32-13.29,7.15-16.35-7.05-2.55-7.16-2.27-10.66,18.73-10.66,18.73L238.46,97.9Z" fill="#27aae1"/><path d="M304.68,97s-8.68-4.94-8.51-14.75S298.5,69,303.32,65.89s-7-2.55-7.15-2.27S285.5,82.35,285.5,82.35L297.19,97.9Z" fill="#27aae1"/><path d="M135.26,101.75a22.16,22.16,0,0,1-8.57-8.31,24.83,24.83,0,0,1,0-24,21.85,21.85,0,0,1,8.57-8.27,25.69,25.69,0,0,1,12.45-3,23.8,23.8,0,0,1,11.06,2.5,17.71,17.71,0,0,1,7.54,7.23L160,72A14,14,0,0,0,154.68,67a15.23,15.23,0,0,0-7.06-1.64,16.31,16.31,0,0,0-8.05,2A14.26,14.26,0,0,0,134,73a18.64,18.64,0,0,0,0,16.88,14.1,14.1,0,0,0,5.6,5.65,16.31,16.31,0,0,0,8.05,2,15.23,15.23,0,0,0,7.06-1.64A14,14,0,0,0,160,91l6.29,4a18,18,0,0,1-7.54,7.28,23.57,23.57,0,0,1-11.06,2.54A25.38,25.38,0,0,1,135.26,101.75Z" fill="#231f20"/><path d="M183.62,101.75a21.79,21.79,0,0,1-8.48-8.31,25.12,25.12,0,0,1,0-24,21.48,21.48,0,0,1,8.48-8.27,25,25,0,0,1,12.23-3,24.77,24.77,0,0,1,12.18,3,21.64,21.64,0,0,1,8.44,8.27,25.12,25.12,0,0,1,0,24,22,22,0,0,1-8.44,8.31,24.47,24.47,0,0,1-12.18,3A24.74,24.74,0,0,1,183.62,101.75Zm20.11-6.25a14.32,14.32,0,0,0,5.47-5.68,18.81,18.81,0,0,0,0-16.8,14.15,14.15,0,0,0-5.47-5.64,16.67,16.67,0,0,0-15.76,0A14.31,14.31,0,0,0,182.46,73a18.39,18.39,0,0,0,0,16.8A14.48,14.48,0,0,0,188,95.5a16.31,16.31,0,0,0,15.76,0Z" fill="#231f20"/><path d="M274.05,40.34v63.9h-7.93V97a17.89,17.89,0,0,1-7,5.77,21.66,21.66,0,0,1-9.3,2A23.9,23.9,0,0,1,238,101.83a21,21,0,0,1-8.22-8.22,24.48,24.48,0,0,1-3-12.19,24.24,24.24,0,0,1,3-12.14A21.06,21.06,0,0,1,238,61.1a24,24,0,0,1,11.89-2.93,22,22,0,0,1,9,1.85,17.68,17.68,0,0,1,6.89,5.47V40.34ZM258.37,95.5a14.15,14.15,0,0,0,5.51-5.68,18.81,18.81,0,0,0,0-16.8,14,14,0,0,0-5.51-5.64,16.59,16.59,0,0,0-15.72,0A14.44,14.44,0,0,0,237.14,73a18.48,18.48,0,0,0,0,16.8,14.62,14.62,0,0,0,5.51,5.68,16.23,16.23,0,0,0,15.72,0Z" fill="#231f20"/><path d="M330.8,84.18h-37a14.32,14.32,0,0,0,5.29,9.69,17.3,17.3,0,0,0,11.24,3.66q8.19,0,13.18-5.52L328,97.35a20,20,0,0,1-7.71,5.52,29.09,29.09,0,0,1-23.12-1.08,21.13,21.13,0,0,1-8.65-8.31,23.82,23.82,0,0,1-3.06-12.06,24.2,24.2,0,0,1,3-12,21.29,21.29,0,0,1,8.18-8.31,23.3,23.3,0,0,1,11.76-3,22.86,22.86,0,0,1,11.67,3,20.94,20.94,0,0,1,8,8.31A25.37,25.37,0,0,1,331,81.68C331,82.31,330.91,83.14,330.8,84.18ZM298.46,68.76a14.58,14.58,0,0,0-4.69,9.48h29.28a14.73,14.73,0,0,0-4.7-9.44,15.41,15.41,0,0,0-19.89,0Z" fill="#231f20"/><path d="M129.43,143.84v-19.3h-3.15v-3.1h3.15v-1.06c0-3.15.69-6,2.59-7.82a7.79,7.79,0,0,1,5.46-2.08,9.34,9.34,0,0,1,3.47.65l-.56,3.14a6,6,0,0,0-2.59-.51c-3.47,0-4.35,3.06-4.35,6.48v1.2h5.42v3.1h-5.42v19.3Z" fill="#27aae1"/><path d="M178,115.15a2.52,2.52,0,0,1-5,0,2.48,2.48,0,0,1,2.54-2.54A2.41,2.41,0,0,1,178,115.15Zm-4.54,28.69v-22.4h4.08v22.4Z" fill="#27aae1"/><path d="M217.42,133.38c.09,5.51,3.61,7.77,7.68,7.77a14.86,14.86,0,0,0,6.2-1.15l.69,2.91a18,18,0,0,1-7.44,1.39c-6.9,0-11-4.54-11-11.29s4-12.08,10.51-12.08c7.31,0,9.25,6.43,9.25,10.55a14.76,14.76,0,0,1-.14,1.9Zm11.94-2.92c0-2.59-1.07-6.61-5.65-6.61-4.11,0-5.92,3.79-6.24,6.61Z" fill="#27aae1"/><path d="M269.24,111h4.07v32.85h-4.07Z" fill="#27aae1"/><path d="M330.4,111v27.06c0,2,0,4.26.18,5.79h-3.65l-.19-3.89h-.09a8.28,8.28,0,0,1-7.63,4.39c-5.42,0-9.58-4.58-9.58-11.38-.05-7.45,4.58-12,10-12,3.42,0,5.74,1.62,6.75,3.43h.1V111Zm-4.07,19.57a7.06,7.06,0,0,0-.19-1.71,6,6,0,0,0-5.87-4.72c-4.21,0-6.71,3.7-6.71,8.65,0,4.53,2.22,8.28,6.61,8.28a6.12,6.12,0,0,0,6-4.86,7,7,0,0,0,.19-1.76Z" fill="#27aae1"/><path d="M78,110.72a.08.08,0,0,1,0,0c-1.72.59-3.44,1.17-5.14,1.77l.11.06L66,115l-8.92,3.17c7-2.43,14-4.88,20.94-7.28A1,1,0,0,1,78,110.72Z" fill="#162a42"/><path d="M112.78,75.35c-9.21,3.24-18.45,6.4-27.68,9.62l-14.35,5h0l-2.54.9-.4.14c-5.81,2-11.65,4-17.42,6.11A22.91,22.91,0,0,0,39,105.56a13.86,13.86,0,0,0-2.37,4.79,15.93,15.93,0,0,0-1.6,7.8c0,1,.11,2,.2,3.06.45,1.31.05,4.77,2.25,3.63,6.56-2.16,13.1-4.41,19.61-6.68,7-2.43,14-4.88,20.94-7.28a1,1,0,0,1,0-.16.08.08,0,0,1,0,0l.29-.11q3.45-1.18,6.89-2.42l1.09-.38,4-1.45,2.44-.9,11.24-4c1.45,1,3.22,2,3.75,3.8.55,1.6,1.11,3.21,1.67,4.81v0a13.72,13.72,0,0,1,1.26,3.63.07.07,0,0,1,0,0c.84,3.83,1.14,10.51-3,19.31a45.79,45.79,0,0,1-2.32,4.25c-4,4.74-8.77,9-14.73,11Q65.3,157.14,40,165.87l-.18.06-17.18,5.81c-.42-1.23-.84-2.46-1.27-3.68a4.48,4.48,0,0,1,2.74-5.95c10-3.51,20-6.92,29.93-10.4l12.1-4.19,1.93-.68,2.16-.74c5.43-1.87,10.89-3.71,16.27-5.72a22.76,22.76,0,0,0,11.4-8.48,13.86,13.86,0,0,0,2.37-4.79,15.85,15.85,0,0,0,1.6-7.8c0-1-.11-2-.2-3.06-.45-1.31-.05-4.77-2.25-3.63-6.46,2.13-12.91,4.35-19.35,6.59L64,125l.12.06-5.44,1.88q-7.25,2.51-14.45,5.16l-11.23,4h0c-1.45-1.05-3.22-2-3.74-3.81l0-.07-.07-.22c-.65-2.08-4.39-15.14.15-27.53a45.71,45.71,0,0,1,2.31-4.25c4-4.74,8.78-9,14.73-11Q70.56,80.7,94.82,72.31l2.25-.78,8.84-3.06h0l8.29-2.89c0,.05,0,.1,0,.15.43,1.23.85,2.46,1.27,3.68A4.46,4.46,0,0,1,112.78,75.35Z" fill="#27aae1"/><path d="M85.13,108.16,78,110.73,66,115l0,0,6.93-2.47-.12-.06L78,110.67l.29-.1C80.54,109.78,82.84,109,85.13,108.16Z" fill="#162a42"/><path d="M99.39,22.82c-.71-1.91-.7-4.53-2.84-5.5C85.46,11.83,74.26,6.52,63.15,1.06,62,.54,60.7-.26,59.34.08,49.72,3.77,39.9,6.9,30.19,10.37,23.88,12.7,17,14.19,11.75,18.57A31.17,31.17,0,0,0,.68,49.33h0v0a27.76,27.76,0,0,0,.84,3.06Q12.79,85,24.09,117.48a48.53,48.53,0,0,1,3.23-17.76,19.29,19.29,0,0,1-.84-7.31c-.35-9,6.16-17.49,14.62-20.3C54.74,67.35,68.4,62.67,82,57.9a4.25,4.25,0,0,0,2.69-5.5,4.3,4.3,0,0,0-5.83-2.68Q58.18,56.91,37.46,64.08a32,32,0,0,0-14.3,10.84,24.43,24.43,0,0,0-2.75,5c-.66-2.43-1.79-4.69-2.22-7.17a16.22,16.22,0,0,1-.5-5.37A20.36,20.36,0,0,1,20.3,57.16a21.88,21.88,0,0,1,11-9.74c5.74-2.14,11.62-4,17.36-6.11A4.19,4.19,0,0,0,51,36.07a4.23,4.23,0,0,0-5.39-2.89c-5.11,1.68-10.19,3.53-15.3,5.27A31.77,31.77,0,0,0,13.89,50.68a27.21,27.21,0,0,0-2.13,3.71,44,44,0,0,1-2.33-6.74c-.1-.78-.22-1.55-.34-2.3-.22-3.14-.43-6.59,1.14-9.43a12.55,12.55,0,0,1,1.34-3.51l1.17-2a18.26,18.26,0,0,1,3.65-4.11l0,0c4.15-3.48,9.62-5.27,14.74-7,8.82-3,17.62-6.11,26.44-9.14C60,17.09,62.38,24.06,64.82,31a4.21,4.21,0,0,0,5.32,2.9c7.1-2.38,14.15-4.93,21.25-7.32Q97.69,44.77,104,63l8.21-3.13Q105.82,41.35,99.39,22.82ZM71.7,24.1c-1.26-3.66-2.53-7.31-3.78-11l14.72,7.14Z" fill="#162a42"/><path d="M23.16,74.92a24.43,24.43,0,0,0-2.75,5c-.66-2.43-1.79-4.69-2.22-7.17a16.22,16.22,0,0,1-.5-5.37A20.36,20.36,0,0,1,20.3,57.16s0,0,0,.06C18.27,63.19,21.7,71.71,23.16,74.92Z" fill="#27aae1"/><path d="M13.89,50.68a27.21,27.21,0,0,0-2.13,3.71,44,44,0,0,1-2.33-6.74c-.1-.78-.22-1.55-.34-2.3-.22-3.14-.43-6.59,1.14-9.43a12.55,12.55,0,0,1,1.34-3.51l1.17-2a18.26,18.26,0,0,1,3.65-4.11C8.22,35.9,11.72,46.25,13.89,50.68Z" fill="#27aae1"/><polygon points="67.92 13.15 71.7 24.1 82.64 20.29 67.92 13.15" fill="#27aae1"/></g></g></svg>