<svg xmlns="http://www.w3.org/2000/svg" viewBox="0 0 500 500"><g id="freepik--background-complete--inject-72"><path d="M439.31,153.37a11.15,11.15,0,0,0-11.12-13,11,11,0,0,0-1.83.16,12.87,12.87,0,0,0-23.43,3.13,8.46,8.46,0,0,0-2.48-.37,8.36,8.36,0,0,0-8.36,8.36,8.55,8.55,0,0,0,.19,1.76Z" style="fill:#f0f0f0"></path><path d="M145,108.86a19,19,0,0,0,.26-3,19.39,19.39,0,0,0-19.39-19.39,19.19,19.19,0,0,0-3.14.28A22.11,22.11,0,0,0,82.48,92.1a14.35,14.35,0,0,0-18.31,16.76Z" style="fill:#f0f0f0"></path><rect y="382.4" width="500" height="0.25" style="fill:#ebebeb"></rect><rect x="416.78" y="398.49" width="33.12" height="0.25" style="fill:#ebebeb"></rect><rect x="322.53" y="401.21" width="8.69" height="0.25" style="fill:#ebebeb"></rect><rect x="396.59" y="389.21" width="19.19" height="0.25" style="fill:#ebebeb"></rect><rect x="52.46" y="390.89" width="43.19" height="0.25" style="fill:#ebebeb"></rect><rect x="104.56" y="390.89" width="6.33" height="0.25" style="fill:#ebebeb"></rect><rect x="131.47" y="395.11" width="93.68" height="0.25" style="fill:#ebebeb"></rect><path d="M237,337.8H43.91a5.71,5.71,0,0,1-5.7-5.71V60.66A5.71,5.71,0,0,1,43.91,55H237a5.71,5.71,0,0,1,5.71,5.71V332.09A5.71,5.71,0,0,1,237,337.8ZM43.91,55.2a5.46,5.46,0,0,0-5.45,5.46V332.09a5.46,5.46,0,0,0,5.45,5.46H237a5.47,5.47,0,0,0,5.46-5.46V60.66A5.47,5.47,0,0,0,237,55.2Z" style="fill:#ebebeb"></path><path d="M453.31,337.8H260.21a5.72,5.72,0,0,1-5.71-5.71V60.66A5.72,5.72,0,0,1,260.21,55h193.1A5.71,5.71,0,0,1,459,60.66V332.09A5.71,5.71,0,0,1,453.31,337.8ZM260.21,55.2a5.47,5.47,0,0,0-5.46,5.46V332.09a5.47,5.47,0,0,0,5.46,5.46h193.1a5.47,5.47,0,0,0,5.46-5.46V60.66a5.47,5.47,0,0,0-5.46-5.46Z" style="fill:#ebebeb"></path><polygon points="37.91 353.46 37.91 286.98 69.93 286.98 69.93 268.8 85.26 268.8 85.26 215.37 105.06 195.57 145.26 195.57 145.26 252.82 200.41 252.82 200.41 264.13 239.4 264.13 239.4 249.27 281.29 249.27 281.29 238.07 314 238.07 314 171.75 371.91 171.75 371.91 214.01 385.24 214.01 385.24 229.32 416.23 229.32 416.23 254.43 432.79 254.43 445.53 267.17 445.53 280.13 458.22 280.13 458.22 353.46 37.91 353.46" style="fill:#f0f0f0"></polygon><polygon points="76.91 286.98 70.48 286.98 69.93 286.6 69.93 286.98 37.91 286.98 37.91 353.46 76.91 353.46 76.91 286.98" style="fill:#e6e6e6"></polygon><polygon points="239.96 254.11 239.96 264.13 238.38 264.13 236.7 274.85 241.45 353.46 294.28 353.46 294.28 249.27 281.85 249.27 240.71 249.27 239.96 254.11" style="fill:#e6e6e6"></polygon><polygon points="362.95 229.32 362.95 353.46 458.77 353.46 458.77 280.13 446.08 280.13 446.08 267.17 433.34 254.43 416.78 254.43 416.78 229.32 388.65 229.32 385.79 229.32 362.95 229.32" style="fill:#e6e6e6"></polygon><rect x="427.61" y="261.17" width="5.79" height="5.79" style="fill:#fff"></rect><rect x="417.38" y="261.17" width="5.79" height="5.79" style="fill:#fff"></rect><rect x="427.61" y="271.96" width="5.79" height="5.79" style="fill:#fff"></rect><rect x="417.38" y="271.96" width="5.79" height="5.79" style="fill:#fff"></rect><rect x="395.99" y="233.99" width="5.79" height="5.79" style="fill:#fff"></rect><rect x="385.76" y="233.99" width="5.79" height="5.79" style="fill:#fff"></rect><rect x="64.4" y="296.35" width="5.79" height="5.79" style="fill:#fff"></rect><rect x="54.17" y="296.35" width="5.79" height="5.79" style="fill:#fff"></rect><rect x="281.82" y="266.28" width="5.79" height="5.79" transform="translate(553.89 -15.53) rotate(90)" style="fill:#fff"></rect><rect x="281.82" y="256.05" width="5.79" height="5.79" transform="translate(543.66 -25.76) rotate(90)" style="fill:#fff"></rect></g><g id="freepik--Shadow--inject-72"><ellipse id="freepik--path--inject-72" cx="248.06" cy="416.24" rx="193.89" ry="11.32" style="fill:#f5f5f5"></ellipse></g><g id="freepik--Box--inject-72"><rect x="388.9" y="366.94" width="54.63" height="45.18" style="fill:#FF844B"></rect><rect x="388.9" y="366.94" width="54.63" height="45.18" style="fill:#fff;opacity:0.30000000000000004;isolation:isolate"></rect><rect x="360.03" y="366.94" width="42.34" height="45.18" style="fill:#FF844B"></rect><rect x="360.03" y="366.94" width="42.34" height="45.18" style="fill:#fff;opacity:0.1;isolation:isolate"></rect><rect x="375.21" y="366.94" width="11.98" height="14.06" style="fill:#fff;opacity:0.30000000000000004;isolation:isolate"></rect><rect x="419.91" y="366.94" width="11.98" height="14.06" style="opacity:0.1;isolation:isolate"></rect><path d="M420.56,393.53l-1.58,0a12.71,12.71,0,0,1,0-1.38c0-.72.55-2.11,1.55-1.48.31.19.67-.25.36-.44a1.58,1.58,0,0,0-2.38,1.14,7.66,7.66,0,0,0-.1,2.14l-.91,0c-.36,0-.46.55-.09.56l1,0c0,.88,0,1.76,0,2.64,0,.37.57.3.57-.06,0-.86,0-1.71,0-2.57l1.48,0C420.83,394.1,420.93,393.54,420.56,393.53Z" style="fill:#fff"></path><path d="M423.18,392.29a.25.25,0,0,0-.12,0c-2.59-.19-2.18,4.05.3,4a2.16,2.16,0,0,0,1.85-2.23A1.74,1.74,0,0,0,423.18,392.29Zm.39,3.39c-1.87.49-2.47-3-.55-2.79a.34.34,0,0,0,.18,0h0C425,392.62,425,395.3,423.57,395.68Z" style="fill:#fff"></path><path d="M429.36,393.34c-.77-2.5-4.65-.45-3.54,1.83a2.18,2.18,0,0,0,2.76.81,1.74,1.74,0,0,0,.84-2.56Zm-3.09,1.43c-.53-1.52,2-3,2.56-1.2a.22.22,0,0,0,.11.15,0,0,0,0,1,0,0C429.92,395.47,426.81,396.35,426.27,394.77Z" style="fill:#fff"></path><path d="M433.7,396.1c-.17-2.3-.33-4.6-.5-6.89,0-.37-.59-.3-.57.06l.21,2.9a2.09,2.09,0,0,0-2.73,1.86c-.08,1.55,1.72,2.08,3,1.91v.22C433.16,396.52,433.73,396.46,433.7,396.1Zm-3-1.82a1.54,1.54,0,0,1,2-1.57.33.33,0,0,0,.17,0c.07.88.13,1.76.2,2.65C432.2,395.48,430.83,395.3,430.68,394.28Z" style="fill:#fff"></path></g><g id="freepik--Character--inject-72"><path d="M294.34,220.82l-17.43,4.42a6.66,6.66,0,0,0-4.51-.92c-2.47.46-8.65,5.51-8.41,6.25s7.69,4.17,8.76,3.89c3.84-1,7.8-5.47,7.8-5.47l15.58-3.21Z" style="fill:#e4897b"></path><path d="M338,158.14c-3.54,3.77-12.92,3.45-12.92,3.45s-3.09.27-3.86-2.35c3.39-.84,3.91-3.28,4.44-5.39a10.07,10.07,0,0,0,0-3.95,18.38,18.38,0,0,0-.46-2.18l10.89-9.47C335.08,144,334,154.34,338,158.14Z" style="fill:#e4897b"></path><path d="M333.91,143.9c.09,7-5.46,9.34-8.22,9.95a10.07,10.07,0,0,0,0-3.95Z" style="opacity:0.2;isolation:isolate"></path><path d="M334.81,145.44a9.82,9.82,0,0,1-10.95,4.69,10.89,10.89,0,0,1-6.63-4.58,9,9,0,0,1-.6-1c-3.35-6.38-5.16-17.85,1.48-22.73A10.65,10.65,0,0,1,335,128.55C336.44,136.2,337.66,140.63,334.81,145.44Z" style="fill:#e4897b"></path><path d="M323.63,134.05a1,1,0,0,1-.45,1.3c-.4.1-.85-.32-1-.93s.05-1.2.45-1.3S323.47,133.43,323.63,134.05Z" style="fill:#263238"></path><path d="M316.88,135.47c.2.6-.05,1.2-.44,1.3s-.86-.32-1-.93.05-1.2.45-1.3S316.73,134.89,316.88,135.47Z" style="fill:#263238"></path><path d="M319.31,135.66a21.44,21.44,0,0,1-1.41,5.86c1,.4,2.4-.23,3.35-.75Z" style="fill:#de5753"></path><path d="M325.63,130.77a.38.38,0,0,1-.38-.06,3,3,0,0,0-2.62-.62.37.37,0,1,1-.23-.7h0a3.75,3.75,0,0,1,3.31.74.37.37,0,0,1,.07.52h0A.58.58,0,0,1,325.63,130.77Z" style="fill:#263238"></path><path d="M322.68,143.8h0a5.79,5.79,0,0,0,4.41-2.88.19.19,0,0,0-.09-.26.18.18,0,0,0-.25.08h0a5.46,5.46,0,0,1-4.11,2.65.19.19,0,0,0-.18.21v0a.19.19,0,0,0,.21.17Z" style="fill:#263238"></path><path d="M313.48,133.68a.31.31,0,0,1-.21.07.36.36,0,0,1-.29-.43h0a3.72,3.72,0,0,1,2.08-2.69.37.37,0,0,1,.48.21h0a.37.37,0,0,1-.21.48h0a3,3,0,0,0-1.61,2.16A.39.39,0,0,1,313.48,133.68Z" style="fill:#263238"></path><path d="M339.84,133.9a7.47,7.47,0,0,1-3.2,4.68c-2.19,1.4-4-.37-4.08-2.83,0-2.19,1.08-5.63,3.59-6S340.3,131.54,339.84,133.9Z" style="fill:#e4897b"></path><path d="M305.4,164.08a29.89,29.89,0,0,0-8,13c-1.88,6-3.64,20.13-4.5,27.8a6.94,6.94,0,0,1-5.71,6l-21.06,3.67,1.68,10.71,26.68-2.57A13.33,13.33,0,0,0,306.29,212c1.63-8.25,3.81-20.21,4.8-29.68C312.77,166.23,311,162.42,305.4,164.08Z" style="fill:#FF844B"></path><path d="M305.4,164.08a29.89,29.89,0,0,0-8,13c-1.88,6-3.64,20.13-4.5,27.8a6.94,6.94,0,0,1-5.71,6l-21.06,3.67,1.68,10.71,26.68-2.57A13.33,13.33,0,0,0,306.29,212c1.63-8.25,3.81-20.21,4.8-29.68C312.77,166.23,311,162.42,305.4,164.08Z" style="opacity:0.1"></path><polygon points="290.61 402.1 282.69 400.15 287.2 383.18 295.12 385.13 290.61 402.1" style="fill:#e4897b"></polygon><path d="M282.77,397.41l9,3.24a.68.68,0,0,1,.44.74l-.91,7.11a1.17,1.17,0,0,1-1.31,1,1,1,0,0,1-.25-.07c-2.89-1.09-4.94-2-8.59-3.35-2.25-.82-9.12-3-12.22-4.15s-2.4-4.33-1-4.16c6.15.82,11.06.65,13.47-.33A1.89,1.89,0,0,1,282.77,397.41Z" style="fill:#2e353a"></path><path d="M279.85,397.82a2.28,2.28,0,0,1-1.28-.89,1.08,1.08,0,0,1,0-1.07.56.56,0,0,1,.48-.38c1-.13,2.83,2.2,3,2.47a.16.16,0,0,1,0,.2.17.17,0,0,1-.18.1A9.5,9.5,0,0,1,279.85,397.82Zm-.55-1.93a.48.48,0,0,0-.24,0s-.13,0-.19.16a.79.79,0,0,0,0,.72,3.86,3.86,0,0,0,2.59,1.08A7.71,7.71,0,0,0,279.3,395.89Z" style="fill:#FF844B"></path><path d="M281.84,398.24l-.09,0c-.61-.69-1.5-2.85-1.07-3.57a.61.61,0,0,1,.73-.26,1,1,0,0,1,.67.49c.6,1,0,3.2,0,3.31a.17.17,0,0,1-.14.12A.16.16,0,0,1,281.84,398.24Zm-.41-3.53-.08,0c-.23-.08-.29.05-.32.09-.27.45.23,2,.78,2.87a4.37,4.37,0,0,0,0-2.63A.63.63,0,0,0,281.43,394.71Z" style="fill:#FF844B"></path><polygon points="295.12 385.13 287.2 383.18 284.88 391.94 292.8 393.88 295.12 385.13" style="opacity:0.2;isolation:isolate"></polygon><polygon points="343.05 402.02 334.95 402.98 333.2 385.51 341.3 384.55 343.05 402.02" style="fill:#e4897b"></polygon><path d="M334.06,400.39l9.55-.13a.7.7,0,0,1,.68.54l1.64,7a1.17,1.17,0,0,1-.88,1.39,1.09,1.09,0,0,1-.26,0c-3.09,0-5.34-.17-9.22-.12-2.39,0-9.59.37-12.89.42s-3.78-3.22-2.43-3.53c6-1.4,10.58-3.29,12.5-5.06A1.86,1.86,0,0,1,334.06,400.39Z" style="fill:#2e353a"></path><path d="M331.48,401.8a2.33,2.33,0,0,1-1.52-.38,1.09,1.09,0,0,1-.4-1,.56.56,0,0,1,.31-.53c.87-.46,3.43,1.07,3.71,1.24a.17.17,0,0,1,.09.18.18.18,0,0,1-.14.16A8.93,8.93,0,0,1,331.48,401.8Zm-1.19-1.61a.39.39,0,0,0-.24.05c-.05,0-.11.07-.12.22a.78.78,0,0,0,.26.67,3.82,3.82,0,0,0,2.8.1A7.54,7.54,0,0,0,330.29,400.19Z" style="fill:#FF844B"></path><path d="M333.48,401.5h-.09c-.81-.43-2.4-2.14-2.25-3a.6.6,0,0,1,.59-.5,1,1,0,0,1,.79.23c.92.73,1.14,3,1.15,3.09a.19.19,0,0,1-.09.17Zm-1.62-3.17h-.09c-.24,0-.26.14-.26.19-.1.51.92,1.81,1.74,2.41a4.4,4.4,0,0,0-1-2.45A.57.57,0,0,0,331.86,398.33Z" style="fill:#FF844B"></path><polygon points="341.3 384.55 333.2 385.51 334.11 394.52 342.21 393.56 341.3 384.55" style="opacity:0.2;isolation:isolate"></polygon><path d="M305.38,242.36S285,342,284.3,380.26l13.58,6.07s11.06-43.23,14.65-67.52c0,0,9.52-19.29,12.08-35,0,0-.53,69,6.62,105.41l12.74-1s12.85-129.44,10.53-150.16Z" style="fill:#FF844B"></path><path d="M305.38,242.36S285,342,284.3,380.26l13.58,6.07s11.06-43.23,14.65-67.52c0,0,9.52-19.29,12.08-35,0,0-.53,69,6.62,105.41l12.74-1s12.85-129.44,10.53-150.16Z" style="fill:#fff;opacity:0.6000000000000001;isolation:isolate"></path><path d="M322.4,258.66s-1.51,23.69.64,32.39c.65-2.45,1.19-4.89,1.57-7.25Z" style="opacity:0.2;isolation:isolate"></path><polygon points="329.61 392.11 347.1 389.51 346.56 384.67 328.38 387.05 329.61 392.11" style="fill:#FF844B"></polygon><polygon points="282 383.99 298.89 389.19 300.5 384.6 283.07 378.89 282 383.99" style="fill:#FF844B"></polygon><path d="M305.4,164.08s2.16-4.27,21.14-5.37S354,160.42,354,160.42s-1.72,40.18.48,77.65c0,0-31.74,11.31-49.12,4.29C305.38,242.36,292.36,193.83,305.4,164.08Z" style="fill:#FF844B"></path><path d="M333.34,158.47c-2.1,0-4.36.1-6.8.24-1.47.09-2.82.19-4.09.31,0,0,1.62,3.07,4.09,3.07A8.15,8.15,0,0,0,333.34,158.47Z" style="opacity:0.2"></path><path d="M353.51,210.68l-28.9,14.61s18.22.56,29.11-5.35Q353.59,215.25,353.51,210.68Z" style="opacity:0.30000000000000004"></path><polygon points="326.17 169.96 336.44 215.65 334.16 221.56 326.17 169.96" style="opacity:0.1"></polygon><rect x="275.86" y="173.83" width="54.63" height="52.21" transform="matrix(0.99, -0.15, 0.15, 0.99, -27.01, 48.72)" style="fill:#FF844B"></rect><rect x="275.86" y="173.83" width="54.63" height="52.21" transform="matrix(0.99, -0.15, 0.15, 0.99, -27.01, 48.72)" style="fill:#fff;opacity:0.1;isolation:isolate"></rect><rect x="247.39" y="179.19" width="42.34" height="52.21" transform="translate(-28.24 43.49) rotate(-8.8)" style="fill:#FF844B"></rect><rect x="247.39" y="179.19" width="42.34" height="52.21" transform="translate(-28.24 43.49) rotate(-8.8)" style="fill:#fff;opacity:0.30000000000000004;isolation:isolate"></rect><rect x="259.66" y="179.41" width="11.98" height="14.06" transform="translate(-25.39 42.82) rotate(-8.8)" style="fill:#fff;opacity:0.30000000000000004;isolation:isolate"></rect><rect x="303.83" y="172.58" width="11.98" height="14.06" transform="translate(-23.82 49.5) rotate(-8.8)" style="opacity:0.1;isolation:isolate"></rect><rect x="276.79" y="218.5" width="13.09" height="7.97" transform="translate(-30.69 45.95) rotate(-8.8)" style="fill:#fff;opacity:0.2"></rect><path d="M309.41,224.88l-1.33-1.76-4.29.92a6.07,6.07,0,0,0-.26,2.26l6-.92Z" style="fill:#2e353a;opacity:0.2"></path><path d="M302,203.22c-1,.34-2.4.32-2.54-1-.11-1.1,1.19-2,2.18-1.82a.29.29,0,0,0,.1-.58,2.52,2.52,0,0,0-2.87,2.46c.17,1.74,2,2,3.35,1.5C302.61,203.65,302.4,203.09,302,203.22Z" style="fill:#fff"></path><path d="M303,197.72c-.09-.37-.68-.31-.6.06q.65,2.86,1.27,5.71c.08.37.67.32.59-.06Z" style="fill:#fff"></path><path d="M306.55,198.84a.18.18,0,0,0-.1.07c-2.67.51-1.1,4.68,1.38,3.91a2.25,2.25,0,0,0,1.25-2.74A1.81,1.81,0,0,0,306.55,198.84Zm1.32,3.31c-1.75,1-3.3-2.32-1.31-2.66a.27.27,0,0,0,.16-.08l0,0C308.5,198.67,309.23,201.37,307.87,202.15Z" style="fill:#fff"></path><path d="M311.54,197.26l-1.09.19-.18-1.18c-.06-.38-.65-.32-.59.06s.12.81.19,1.22l-1.08.18c-.37.07-.32.66.06.6l1.11-.19.66,4.29c.06.37.65.31.59-.07-.22-1.44-.45-2.88-.67-4.32l1.07-.19C312,197.79,311.92,197.19,311.54,197.26Z" style="fill:#fff"></path><path d="M315.72,198.05a2.2,2.2,0,0,0-2.38.09q-.21-1.17-.45-2.34c-.08-.37-.67-.31-.59.07q.61,3,1,6c.06.38.65.32.59-.06-.14-1-.3-2-.47-3h0a1.58,1.58,0,0,1,2.32.1,5.7,5.7,0,0,1,.55,2.44.3.3,0,0,0,.59-.06C316.82,200.21,316.78,198.62,315.72,198.05Z" style="fill:#fff"></path><path d="M318.24,196.91a1.92,1.92,0,0,0-.67,2.8,2.17,2.17,0,0,0,3.05.94c.34-.17.13-.73-.21-.56a1.49,1.49,0,0,1-1.87-.11,2.33,2.33,0,0,1-.48-.62c.88.07,2.49-.11,2.53-1.07C320.64,197.06,319.23,196.52,318.24,196.91Zm1.68,1.47c-.09.14-.5.23-.66.28a2.77,2.77,0,0,1-1.4.08h0a1.23,1.23,0,0,1,.2-.93,1.12,1.12,0,0,1,1.23-.36C319.58,197.52,320.2,198,319.92,198.38Z" style="fill:#fff"></path><path d="M325,198.07a1.47,1.47,0,0,0-1.69-.67c-.48.1-1.64.58-1.38-.37.16-.63,1-.87,1.59-.82.38,0,.48-.55.09-.59-1-.09-2.93.81-2.31,2.12.29.61,1,.54,1.58.4a2.54,2.54,0,0,1,1-.19.68.68,0,0,1,.47,1.12c-.42.55-1.24.45-1.84.35a.3.3,0,0,0-.1.59,2.63,2.63,0,0,0,2.22-.37A1.39,1.39,0,0,0,325,198.07Z" style="fill:#fff"></path><path d="M334.23,214.58l-17.47,4.26a6.7,6.7,0,0,0-4.51-1c-2.46.44-8.69,5.43-8.46,6.17s6,5.26,7.07,4.93,7.8-5.09,7.8-5.09l16.64-1.39Z" style="fill:#e4897b"></path><path d="M352.89,160.36s-7.34,1.95-6.3,15.57c.46,5.92.69,12.24.81,17.5a18.55,18.55,0,0,1-10.3,17l-14.34,5.86,1.85,9s20.84-1.91,28.17-7.77,9.88-18.37,8.69-28.74C359.81,174.38,360.36,159.78,352.89,160.36Z" style="fill:#FF844B"></path><path d="M352.89,160.36s-7.34,1.95-6.3,15.57c.46,5.92.69,12.24.81,17.5a18.55,18.55,0,0,1-10.3,17l-14.34,5.86,1.85,9s20.84-1.91,28.17-7.77,9.88-18.37,8.69-28.74C359.81,174.38,360.36,159.78,352.89,160.36Z" style="opacity:0.1"></path><polygon points="324.12 214.01 325.34 226.53 321.97 226.85 320.18 215.13 324.12 214.01" style="fill:#FF844B"></polygon><polygon points="324.12 214.01 325.34 226.53 321.97 226.85 320.18 215.13 324.12 214.01" style="fill:#fff;opacity:0.6000000000000001;isolation:isolate"></polygon><rect x="330.19" y="180.13" width="11.67" height="1.86" transform="translate(-14.8 30.66) rotate(-5.11)" style="fill:#fff;opacity:0.4"></rect><path d="M326.54,158.71l3.76,5,7.93-5.23V158a2.66,2.66,0,0,0-1-2.2,2.74,2.74,0,0,0-2.55-.17Z" style="fill:#FF844B"></path><path d="M321.25,159.11l.93-1.54c1.17-1.38,2.1-.67,2.1-.67l2.26,1.81-3.3,5Z" style="fill:#FF844B"></path><path d="M326.54,158.71l3.76,5,7.93-5.23V158a2.66,2.66,0,0,0-1-2.2,2.74,2.74,0,0,0-2.55-.17Z" style="fill:#fff;opacity:0.6000000000000001;isolation:isolate"></path><path d="M321.25,159.11l.93-1.54c1.17-1.38,2.1-.67,2.1-.67l2.26,1.81-3.3,5Z" style="fill:#fff;opacity:0.6000000000000001;isolation:isolate"></path><path d="M339.64,133.7c.53-3.42-1.84-3.89-3.4-3.48s-3.25,2.89-3.25,2.89c-1.52-2.46-2.38-8.69-2.38-8.69a14.26,14.26,0,0,1-12.71.54,10.11,10.11,0,0,1-4.13,5.07s-2.82-1.29-1.25-7.77c1.78-7.37,12.85-14.5,24-7.15s4.4,21,4.4,21-2.53,4.47-4.77,6.15a14.13,14.13,0,0,0,0-4A6.15,6.15,0,0,0,339.64,133.7Z" style="fill:#2e353a"></path><path d="M316.58,123.13a11.59,11.59,0,0,0,2.22,2.08,12.8,12.8,0,0,0,2.72,1.48,11.34,11.34,0,0,0,3,.73,12.87,12.87,0,0,0,3.16-.09,13,13,0,0,1-3.17.34,11.55,11.55,0,0,1-3.19-.51,12.56,12.56,0,0,1-3-1.33,12.34,12.34,0,0,1-2.59-2.07Z" style="fill:#2e353a"></path></g></svg>